<svg width="96" height="26" viewBox="0 0 96 26" fill="none" xmlns="http://www.w3.org/2000/svg">
<path d="M0 6.60742C0 3.29371 2.68629 0.607422 6 0.607422H25C28.3137 0.607422 31 3.29371 31 6.60742V17.696C31 21.0097 28.3137 23.696 25 23.696H6C2.68629 23.696 0 21.0097 0 17.696V6.60742Z" fill="#9FA1A5"/>
<path d="M15.8067 13.3124C15.8067 12.0977 15.0124 11.3034 13.751 11.3034C12.5362 11.3034 11.6797 12.1911 11.6953 13.3903C11.7109 14.5271 12.5518 15.3214 13.751 15.3214C15.0124 15.3214 15.8067 14.5427 15.8067 13.3124ZM8.93879 18V4.76259H11.6953V9.52806C12.0535 8.96742 13.0969 8.54693 14.1247 8.54693C16.8812 8.54693 18.5632 10.4469 18.5632 13.3124C18.5632 16.1935 16.8812 18.0934 14.1247 18.0934C13.1125 18.0934 12.0379 17.6574 11.6953 17.1279V18H8.93879ZM19.8678 6.10191C19.8678 5.18307 20.4752 4.57571 21.4096 4.57571C22.3284 4.57571 22.9202 5.18307 22.9202 6.10191C22.9202 7.02074 22.3284 7.6281 21.4096 7.6281C20.4752 7.6281 19.8678 7.02074 19.8678 6.10191ZM22.7956 18H20.0235V8.65595H22.7956V18Z" fill="#1D1E20"/>
<path d="M66.107 19V17.9072C65.6777 18.5707 64.3507 19.1171 63.0823 19.1171C59.6284 19.1171 57.5013 16.7364 57.5013 13.1263C57.5013 9.53572 59.6284 7.15502 63.0823 7.15502C64.3507 7.15502 65.6582 7.6819 66.107 8.3844V7.29162H69.5805V19H66.107ZM60.9748 13.1263C60.9748 14.6679 61.97 15.6436 63.5507 15.6436C65.0728 15.6436 66.1265 14.6094 66.107 13.1458C66.107 11.7018 65.0337 10.609 63.5507 10.609C61.97 10.609 60.9748 11.6042 60.9748 13.1263ZM71.5166 4.09133C71.5166 2.94 72.2776 2.17896 73.4484 2.17896C74.5998 2.17896 75.3413 2.94 75.3413 4.09133C75.3413 5.24265 74.5998 6.0037 73.4484 6.0037C72.2776 6.0037 71.5166 5.24265 71.5166 4.09133ZM75.1852 19H71.7117V7.29162H75.1852V19ZM80.5816 19H77.1276V2.41312H80.5816V19ZM89.6618 19L89.2521 20.0733C88.2178 22.7662 88.0422 23.9956 84.7834 23.9956H83.7491V20.5806H84.4516C85.0566 20.5806 85.4078 20.5806 85.681 19.8586L85.9932 19L81.8172 7.29162H85.5054L87.8275 13.8483L90.1692 7.29162H93.8378L89.6618 19Z" fill="#9FA1A5"/>
<path d="M39.1183 10.1944C39.0184 9.60865 38.6535 9.29263 38.5286 9.21128C35.8552 6.82399 36.9108 3.9017 39.9742 2.43123C41.6384 1.63235 43.7552 1.30667 45.8204 1.39763C51.787 1.66045 55.5199 4.88601 55.9927 9.80676C56.5589 15.6996 51.8738 18.4631 50.7609 18.9733C49.597 19.5069 45.9533 20.4011 43.0221 19.9495C40.9883 19.6362 39.4487 18.0755 39.1183 16.6543C38.6977 14.845 39.2181 10.7801 39.1183 10.1944Z" fill="#9FA1A5"/>
<path d="M43.8947 6.04883H45.7414C48.9811 6.04883 51.4009 7.79654 51.4009 10.7094C51.4009 13.5471 48.9811 15.3512 45.9411 15.3512H43.8947C43.4906 15.3512 43.163 15.0235 43.163 14.6194V6.7806C43.163 6.37645 43.4906 6.04883 43.8947 6.04883Z" fill="#1D1E20"/>
</svg>
