<svg width="310" height="151" viewBox="0 0 310 151" fill="none" xmlns="http://www.w3.org/2000/svg">
<path d="M156.87 125V120.52C155.11 123.24 149.67 125.48 144.47 125.48C130.31 125.48 121.59 115.72 121.59 100.92C121.59 86.2 130.31 76.44 144.47 76.44C149.67 76.44 155.03 78.6 156.87 81.48V77H171.11V125H156.87ZM135.83 100.92C135.83 107.24 139.91 111.24 146.39 111.24C152.63 111.24 156.95 107 156.87 101C156.87 95.08 152.47 90.6 146.39 90.6C139.91 90.6 135.83 94.68 135.83 100.92ZM179.048 63.88C179.048 59.16 182.168 56.04 186.968 56.04C191.688 56.04 194.728 59.16 194.728 63.88C194.728 68.6 191.688 71.72 186.968 71.72C182.168 71.72 179.048 68.6 179.048 63.88ZM194.088 125H179.848V77H194.088V125ZM216.211 125H202.051V57H216.211V125ZM253.436 125L251.756 129.4C247.516 140.44 246.796 145.48 233.436 145.48H229.196V131.48H232.076C234.556 131.48 235.996 131.48 237.116 128.52L238.396 125L221.276 77H236.396L245.916 103.88L255.516 77H270.556L253.436 125Z" fill="white"/>
<path d="M52.3068 91.1215C51.9247 88.8163 50.528 87.5726 50.0503 87.2524C39.8194 77.8569 43.859 66.3558 55.5822 60.5686C61.9511 57.4245 70.0521 56.1427 77.9553 56.5007C100.789 57.5351 115.074 70.2297 116.884 89.596C119.051 112.788 101.121 123.664 96.8621 125.672C92.4081 127.772 78.4638 131.291 67.2465 129.514C59.4631 128.281 53.5712 122.139 52.3068 116.546C50.6972 109.425 52.689 93.4267 52.3068 91.1215Z" fill="white"/>
<path d="M70.7858 74.8057H77.6533C90.0513 74.8057 99.3116 81.684 99.3116 93.148C99.3116 104.316 90.0513 111.416 78.4175 111.416H70.7858C69.129 111.416 67.7858 110.073 67.7858 108.416V77.8057C67.7858 76.1488 69.129 74.8057 70.7858 74.8057Z" fill="#1D1E20"/>
<path fill-rule="evenodd" clip-rule="evenodd" d="M28.3084 13.0155C23.7198 14.0576 20.8448 18.6221 21.8869 23.2107L25.6606 39.8275C26.7027 44.4161 31.2672 47.2911 35.8558 46.249L37.0486 45.9781C39.9573 49.3442 48.2598 53.8445 45.9617 50.5467C44.7017 48.7385 44.5082 46.3302 44.7142 44.2372L67.243 39.1209C71.8316 38.0788 74.7067 33.5142 73.6646 28.9256L69.8908 12.3089C68.8488 7.72027 64.2842 4.84525 59.6956 5.88734L28.3084 13.0155Z" fill="#5DD951"/>
<path d="M28.3084 13.0155L27.9575 11.4702L28.3084 13.0155ZM37.0486 45.9781L38.2476 44.9421L37.6255 44.2222L36.6977 44.4329L37.0486 45.9781ZM45.9617 50.5467L47.2618 49.6407L45.9617 50.5467ZM44.7142 44.2372L44.3633 42.692L43.2491 42.945L43.1372 44.0821L44.7142 44.2372ZM67.243 39.1209L67.594 40.6661L67.243 39.1209ZM73.6646 28.9256L72.1193 29.2766L73.6646 28.9256ZM69.8908 12.3089L71.4361 11.9579L69.8908 12.3089ZM59.6956 5.88734L60.0465 7.43257L59.6956 5.88734ZM23.4321 22.8598C22.5838 19.1246 24.9241 15.409 28.6593 14.5607L27.9575 11.4702C22.5155 12.7061 19.1057 18.1196 20.3416 23.5617L23.4321 22.8598ZM27.2058 39.4766L23.4321 22.8598L20.3416 23.5617L24.1154 40.1784L27.2058 39.4766ZM35.5049 44.7038C31.7697 45.552 28.0541 43.2117 27.2058 39.4766L24.1154 40.1784C25.3512 45.6204 30.7648 49.0301 36.2068 47.7942L35.5049 44.7038ZM36.6977 44.4329L35.5049 44.7038L36.2068 47.7942L37.3995 47.5234L36.6977 44.4329ZM35.8496 47.0142C37.4826 48.9039 40.4744 50.9808 42.7192 52.1633C43.2936 52.4659 43.8515 52.7274 44.355 52.919C44.8174 53.0949 45.3807 53.2703 45.9136 53.2817C46.1745 53.2873 46.6299 53.2605 47.0736 52.9868C47.616 52.6523 47.9004 52.1011 47.9387 51.5438C47.9703 51.0831 47.8333 50.6894 47.7232 50.4387C47.6027 50.1643 47.4395 49.8958 47.2618 49.6407L44.6617 51.4526C44.7712 51.6098 44.8125 51.6926 44.8214 51.7129C44.8408 51.7569 44.7581 51.6014 44.777 51.3267C44.8025 50.9554 45.007 50.538 45.41 50.2894C45.7143 50.1017 45.971 50.113 45.9816 50.1133C46.0139 50.1139 45.8701 50.1046 45.4818 49.9569C45.1345 49.8248 44.6978 49.6236 44.1962 49.3594C42.1371 48.2747 39.5233 46.4184 38.2476 44.9421L35.8496 47.0142ZM47.2618 49.6407C46.3204 48.2898 46.0995 46.34 46.2911 44.3924L43.1372 44.0821C42.917 46.3204 43.0831 49.1872 44.6617 51.4526L47.2618 49.6407ZM66.8921 37.5756L44.3633 42.692L45.0651 45.7825L67.594 40.6661L66.8921 37.5756ZM72.1193 29.2766C72.9676 33.0117 70.6273 36.7274 66.8921 37.5756L67.594 40.6661C73.036 39.4302 76.4457 34.0167 75.2098 28.5747L72.1193 29.2766ZM68.3456 12.6598L72.1193 29.2766L75.2098 28.5747L71.4361 11.9579L68.3456 12.6598ZM60.0465 7.43257C63.7817 6.5843 67.4973 8.9246 68.3456 12.6598L71.4361 11.9579C70.2002 6.51593 64.7867 3.10621 59.3447 4.34211L60.0465 7.43257ZM28.6593 14.5607L60.0465 7.43257L59.3447 4.34211L27.9575 11.4702L28.6593 14.5607Z" fill="#5DD951"/>
<path d="M47.6341 28.0025C47.2416 26.2744 45.855 25.401 44.0604 25.8086C42.3323 26.2011 41.4005 27.7407 41.8101 29.4416C42.1996 31.054 43.6526 31.9122 45.3586 31.5248C47.1532 31.1172 48.0316 29.7528 47.6341 28.0025ZM39.3779 36.8903L35.101 18.058L39.0226 17.1674L40.5623 23.947C40.8907 23.0337 42.2393 22.0984 43.7016 21.7663C47.6231 20.8757 50.6298 23.0353 51.5556 27.1119C52.4865 31.2107 50.7075 34.4571 46.786 35.3477C45.3458 35.6748 43.6762 35.4016 43.0177 34.759L43.2995 35.9997L39.3779 36.8903ZM51.082 16.4323C50.7852 15.1251 51.453 14.0648 52.7823 13.7629C54.0895 13.466 55.1277 14.1389 55.4245 15.4461C55.7214 16.7533 55.0757 17.8086 53.7685 18.1054C52.4392 18.4073 51.3789 17.7395 51.082 16.4323ZM59.0915 32.4133L55.1478 33.3089L52.1288 20.0155L56.0725 19.1199L59.0915 32.4133Z" fill="#1D1E20"/>
<mask id="mask0_118_4629" style="mask-type:alpha" maskUnits="userSpaceOnUse" x="0" y="0" width="310" height="151">
<rect opacity="0.76" width="310" height="151" fill="#D9D9D9"/>
</mask>
<g mask="url(#mask0_118_4629)">
</g>
</svg>
