<svg width="266" height="41" viewBox="0 0 266 41" fill="none" xmlns="http://www.w3.org/2000/svg">
<path d="M11.2891 32H0.00976562V2.30469H11.207C20.3535 2.30469 26.0547 7.8623 26.0547 17.1523C26.0547 26.4219 20.3535 32 11.2891 32ZM7.80273 25.3555H11.002C15.5752 25.3555 18.1797 23.4072 18.1797 17.1523C18.1797 10.877 15.5752 8.94922 10.7969 8.94922H7.80273V25.3555ZM28.8848 25.8477C28.8848 20.9463 32.5557 19.0186 37.0879 18.752C38.7695 18.6699 41.3945 18.5879 42.2969 18.5469V16.7422C42.2764 15.5117 41.2715 14.8145 39.7539 14.8145C38.1748 14.8145 37.1084 15.4912 36.9238 16.9062H29.7461C30.0332 12.8662 33.3145 9.44141 39.877 9.44141C46.0498 9.44141 50.0488 12.4971 50.0488 16.7832V32H42.7891V28.8828H42.625C41.292 31.3027 39.1182 32.3486 36.1445 32.3691C31.8994 32.3486 28.8848 30.2773 28.8848 25.8477ZM36.1855 25.3965C36.2061 26.7295 37.2109 27.4268 38.6465 27.4062C40.5947 27.4268 42.3584 26.1758 42.3379 24.084V22.8945C41.5586 22.915 39.5078 22.9971 38.4824 23.0996C37.0879 23.2842 36.2061 24.1865 36.1855 25.3965ZM53.9863 32V9.72852H61.7383V32H53.9863ZM53.9863 3.74023C53.9658 1.77148 55.709 0.171875 57.8418 0.171875C59.9541 0.171875 61.6973 1.77148 61.6973 3.74023C61.6973 5.72949 59.9541 7.3291 57.8418 7.30859C55.709 7.3291 53.9658 5.72949 53.9863 3.74023ZM73.6328 2.30469V32H65.8809V2.30469H73.6328ZM82.2051 40.3672C80.749 40.3467 79.3955 40.3262 78.3906 40.2441V34.4609C79.4365 34.543 80.4414 34.543 81.3027 34.543C82.4102 34.543 83.21 34.4199 83.6406 33.3535L83.8047 32.9434L75.9707 9.72852H84.0508L87.7832 25.2734H88.0293L91.8438 9.72852H99.9648L91.7617 33.9277C90.5518 37.5986 87.9473 40.3467 82.2051 40.3672ZM111.408 32V2.30469H124.041C130.686 2.30469 135.033 6.07812 135.033 12.3535C135.033 16.4551 133.146 19.3467 129.947 20.8643L136.018 32H127.527L122.257 22.1152H119.201V32H111.408ZM119.201 16.0039H122.236C125.169 16.0039 126.892 14.9375 126.871 12.3535C126.892 9.72852 125.169 8.55957 122.236 8.53906H119.201V16.0039ZM148.814 32.4102C141.637 32.4102 137.351 27.7754 137.33 20.9258C137.351 14.0762 141.637 9.44141 148.814 9.44141C155.992 9.44141 160.278 14.0762 160.258 20.9258C160.278 27.7754 155.992 32.4102 148.814 32.4102ZM145.246 20.8848C145.267 24.4121 146.579 26.6475 148.855 26.668C151.029 26.6475 152.362 24.4121 152.342 20.8848C152.362 17.3164 151.029 15.0811 148.855 15.1016C146.579 15.0811 145.267 17.3164 145.246 20.8848ZM178.018 22.2793V9.72852H185.77V32H178.428V27.7754H178.182C177.197 30.6055 174.675 32.2871 171.332 32.2871C166.697 32.2871 163.621 28.8418 163.621 23.9199V9.72852H171.373V22.3203C171.373 24.5967 172.583 25.9707 174.654 25.9707C176.664 25.9707 178.038 24.5967 178.018 22.2793ZM203.037 9.72852V15.3477H199.141V24.8633C199.141 25.9092 199.653 26.3193 200.74 26.3809C201.294 26.4014 202.442 26.3398 203.324 26.2578V32.041C202.606 32.1846 201.376 32.3076 199.633 32.3281C194.239 32.3076 191.327 30.2773 191.389 25.6426V15.3477H188.518V9.72852H191.389V4.39648H199.141V9.72852H203.037ZM206.359 32V9.72852H214.111V32H206.359ZM206.359 3.74023C206.339 1.77148 208.082 0.171875 210.215 0.171875C212.327 0.171875 214.07 1.77148 214.07 3.74023C214.07 5.72949 212.327 7.3291 210.215 7.30859C208.082 7.3291 206.339 5.72949 206.359 3.74023ZM226.006 19.4082V32H218.254V9.72852H225.596V13.9121H225.842C226.806 11.1436 229.369 9.44141 232.65 9.44141C237.367 9.44141 240.443 12.9072 240.402 17.8086V32H232.65V19.4082C232.691 17.1113 231.461 15.7373 229.369 15.7578C227.318 15.7373 226.006 17.1318 226.006 19.4082ZM255.045 32.4102C247.949 32.4102 243.622 28.124 243.602 20.9258C243.622 14.0352 248.011 9.44141 254.881 9.44141C261.484 9.44141 265.853 13.6865 265.873 20.8438V22.6895H251.271V22.9766C251.271 25.2939 252.728 26.9141 255.209 26.9141C256.911 26.9141 258.244 26.1963 258.736 24.9043H265.832C265.073 29.498 261.136 32.4102 255.045 32.4102ZM251.271 18.3418H258.695C258.675 16.332 257.116 14.917 255.045 14.9375C252.974 14.917 251.333 16.332 251.271 18.3418Z" fill="#E7FF86"/>
</svg>
