<svg width="28" height="28" viewBox="0 0 28 28" fill="none" xmlns="http://www.w3.org/2000/svg">
<path d="M14.5019 3C16.601 3.00004 18.6175 3.82227 20.1238 5.29234C21.6301 6.7624 22.5079 8.76468 22.5708 10.8746L22.5746 11.1181V15.5224L23.9174 19.0022C23.9535 19.0958 23.9782 19.1942 23.9905 19.2935L24 19.4444C23.9999 19.747 23.8882 20.0389 23.6865 20.2634C23.4847 20.488 23.2073 20.6293 22.9079 20.6601L22.7845 20.6667L17.8275 20.6677C17.8244 21.5367 17.485 22.3704 16.8813 22.9921C16.2776 23.6139 15.4569 23.9749 14.5931 23.9987C13.7293 24.0226 12.8902 23.7073 12.2535 23.1198C11.6168 22.5323 11.2325 21.7186 11.182 20.851L11.1763 20.6658L6.21645 20.6667C6.0292 20.6669 5.84445 20.6235 5.67661 20.54C5.50877 20.4566 5.36238 20.3352 5.24886 20.1855C5.13534 20.0357 5.05776 19.8616 5.02216 19.6767C4.98657 19.4919 4.99393 19.3012 5.04367 19.1197L5.08355 19.0013L6.42821 15.5214V11.1191C6.42809 10.0528 6.63684 8.99699 7.04253 8.01188C7.44823 7.02678 8.04293 6.13169 8.79266 5.37774C9.5424 4.62379 10.4325 4.02575 11.4121 3.61777C12.3917 3.20979 13.4416 2.99987 14.5019 3ZM16.3973 20.81L16.4011 20.6667L12.6007 20.6687C12.5942 21.1673 12.7819 21.6488 13.1235 22.0103C13.4652 22.3718 13.9339 22.5846 14.4295 22.6033C14.9251 22.622 15.4084 22.4451 15.776 22.1104C16.1437 21.7757 16.3667 21.3097 16.3973 20.8119V20.81ZM14.5019 4.43244C12.7783 4.4324 11.122 5.10554 9.88237 6.3099C8.64276 7.51425 7.91673 9.15566 7.85739 10.888L7.85359 11.1181V15.6561C7.85357 15.7153 7.84623 15.7743 7.83175 15.8318L7.80516 15.9158L6.52128 19.2343H22.4787L21.1986 15.9168C21.1773 15.8615 21.163 15.8037 21.1559 15.7449L21.1492 15.657V11.1191C21.1494 10.2411 20.9775 9.37168 20.6435 8.56049C20.3095 7.7493 19.8199 7.01221 19.2027 6.3913C18.5854 5.77039 17.8526 5.27782 17.046 4.94172C16.2395 4.60562 15.375 4.43256 14.5019 4.43244Z" fill="#BDBDBD"/>
</svg>
