<svg width="16" height="16" viewBox="0 0 16 16" fill="none" xmlns="http://www.w3.org/2000/svg">
<path d="M14.0599 9.00991H9.01003V14.0597C9.01003 14.3276 8.90363 14.5845 8.71422 14.7739C8.52482 14.9633 8.26793 15.0697 8.00007 15.0697C7.73221 15.0697 7.47532 14.9633 7.28591 14.7739C7.09651 14.5845 6.9901 14.3276 6.9901 14.0597V9.00991H1.94026C1.6724 9.00991 1.41552 8.9035 1.22611 8.7141C1.0367 8.52469 0.930298 8.2678 0.930298 7.99994C0.930298 7.73208 1.0367 7.4752 1.22611 7.28579C1.41552 7.09638 1.6724 6.98998 1.94026 6.98998H6.9901V1.94014C6.9901 1.67228 7.09651 1.41539 7.28591 1.22599C7.47532 1.03658 7.73221 0.930176 8.00007 0.930176C8.26793 0.930176 8.52482 1.03658 8.71422 1.22599C8.90363 1.41539 9.01003 1.67228 9.01003 1.94014V6.98998H14.0599C14.3277 6.98998 14.5846 7.09638 14.774 7.28579C14.9634 7.4752 15.0698 7.73208 15.0698 7.99994C15.0698 8.2678 14.9634 8.52469 14.774 8.7141C14.5846 8.9035 14.3277 9.00991 14.0599 9.00991Z" fill="#969696"/>
</svg>
