<svg width="24" height="24" viewBox="0 0 24 24" fill="none" xmlns="http://www.w3.org/2000/svg">
<path d="M7.84753 14.4811L14.1973 8.28863C14.3946 8.09621 14.6457 8 14.9507 8C15.2556 8 15.5067 8.09621 15.704 8.28863C15.9013 8.48105 16 8.72595 16 9.02332C16 9.3207 15.9013 9.5656 15.704 9.75802L8.6009 16.6851C8.38565 16.895 8.13453 17 7.84753 17C7.56054 17 7.30942 16.895 7.09417 16.6851L4.29596 13.9563C4.09865 13.7638 4 13.5189 4 13.2216C4 12.9242 4.09865 12.6793 4.29596 12.4869C4.49327 12.2945 4.74439 12.1983 5.04933 12.1983C5.35426 12.1983 5.60538 12.2945 5.80269 12.4869L7.84753 14.4811Z" fill="#49A8FF"/>
</svg>
